<?xml version="1.0" encoding="UTF-8" standalone="no"?>
<!DOCTYPE svg PUBLIC "-//W3C//DTD SVG 1.1//EN" "http://www.w3.org/Graphics/SVG/1.1/DTD/svg11.dtd">
<svg version="1.1" xmlns="http://www.w3.org/2000/svg" xmlns:xlink="http://www.w3.org/1999/xlink" preserveAspectRatio="xMidYMid meet" viewBox="0 0 640 640" width="640" height="640"><defs><path d="M583.17 491.07C567.02 529.45 529.69 554.25 488.06 554.25C438.11 554.25 396.34 518.55 386.92 471.33C386.93 471.15 386.94 470.97 386.94 470.79C386.94 465.73 386.28 460.82 385.05 456.14C384.97 454.47 384.92 452.8 384.92 451.11C384.92 407.97 411.55 370.94 449.22 355.57C452 365.44 474.22 444.36 477 454.22C478.42 459.29 483.03 462.6 488.05 462.6C489.08 462.6 490.13 462.46 491.17 462.17C497.28 460.45 500.84 454.1 499.12 448C496.34 438.13 474.12 359.2 471.35 349.34C476.79 348.45 482.37 347.98 488.06 347.98C529.09 347.98 566.22 372.28 582.63 409.9C585.17 415.72 591.94 418.38 597.76 415.84C603.58 413.3 606.24 406.53 603.7 400.71C583.63 354.71 538.23 324.99 488.06 324.99C480.21 324.99 472.54 325.72 465.08 327.1C464.99 326.75 464.2 323.95 464.1 323.6C460.77 311.79 458.29 299.77 456.66 287.64C456.66 287.64 456.66 287.63 456.66 287.63C455.71 280.61 455.04 273.55 454.67 266.47C455.71 271.74 460.36 275.71 465.94 275.71C467.51 275.71 480.07 275.71 481.64 275.71C503.38 275.71 521.06 258.03 521.06 236.29C521.06 214.55 503.38 196.87 481.64 196.87C479.34 196.87 467.85 196.87 447.17 196.87C394.29 150.01 364.92 123.98 359.04 118.77C363.61 120.1 368.44 120.83 373.43 120.83C401.94 120.83 425.14 97.63 425.14 69.12C425.14 40.6 401.94 17.41 373.43 17.41C344.92 17.41 321.72 40.6 321.72 69.12C321.72 78.83 324.42 87.93 329.1 95.7C320.88 91.96 311.88 89.97 302.57 89.97C285.47 89.97 269.39 96.63 257.29 108.73C247.88 118.14 172.61 193.41 163.2 202.82C163.17 202.85 163.15 202.88 163.13 202.9C162.82 203.21 162.54 203.54 162.27 203.88C162.24 203.92 162.2 203.96 162.17 204C162.16 204.01 162.15 204.03 162.14 204.04C156.16 211.99 152.75 221.51 152.03 231.77C149.77 231.77 131.7 231.77 129.44 231.77C123.1 231.77 117.95 236.92 117.95 243.26C117.95 244.67 117.95 255.92 117.95 257.33C117.95 281.25 137.42 300.72 161.35 300.72C162.26 300.72 166.8 300.72 174.97 300.72C171.44 315.99 169.47 324.47 169.08 326.16C163.47 325.4 157.75 325 151.94 325C82.4 324.99 25.82 381.57 25.82 451.11C25.82 493.68 47.03 531.4 79.44 554.24C75.23 554.24 41.53 554.24 37.32 554.24C30.97 554.24 25.82 559.39 25.82 565.74C25.82 572.08 30.97 577.23 37.32 577.23C48.78 577.23 140.48 577.23 151.94 577.23C214.29 577.23 266.21 531.74 276.28 472.21C276.99 477.88 281.82 482.28 287.68 482.28C295.49 482.28 358.03 482.28 365.84 482.28C373.37 511.79 391.33 537.17 415.55 554.24C408.26 554.24 349.89 554.24 342.6 554.24C336.25 554.24 331.11 559.39 331.11 565.74C331.11 572.08 336.25 577.23 342.6 577.23C357.15 577.23 473.51 577.23 488.06 577.23C538.96 577.23 584.61 546.91 604.35 499.99C606.81 494.14 604.06 487.4 598.22 484.94C592.36 482.48 585.63 485.22 583.17 491.07ZM481.64 219.85C490.7 219.85 498.08 227.22 498.08 236.29C498.08 245.35 490.7 252.73 481.64 252.73C480.07 252.73 467.51 252.73 465.94 252.73C459.99 252.73 455.1 257.24 454.51 263.03C454.37 259.57 454.3 256.1 454.3 252.63C454.3 250.44 454.3 239.52 454.3 219.85C470.7 219.85 479.82 219.85 481.64 219.85ZM317.26 277.73C315.42 275.54 313.49 273.41 311.45 271.36C309.03 268.95 296.96 256.87 275.23 235.14L322.94 187.43C388.17 234.68 424.4 260.92 431.65 266.17C431.83 270.03 432.09 273.89 432.43 277.73C409.4 277.73 328.78 277.73 317.26 277.73ZM345.06 364.5C341.03 339.49 338.8 325.59 338.35 322.81C338.34 322.73 338.32 322.65 338.31 322.57C336.92 314.97 334.65 307.66 331.58 300.72C337.18 300.72 365.14 300.72 415.47 300.72L345.06 364.5ZM402.16 69.12C402.16 84.96 389.27 97.84 373.43 97.84C357.59 97.84 344.7 84.96 344.7 69.12C344.7 53.27 357.59 40.39 373.43 40.39C389.27 40.39 402.16 53.27 402.16 69.12ZM302.57 112.95C313.54 112.95 323.85 117.22 331.61 124.98C338.26 130.88 371.49 160.4 431.32 213.53L431.32 237.56C369.62 192.86 335.34 168.04 328.49 163.07C326.46 161.6 324.1 160.89 321.75 160.89C318.79 160.89 315.85 162.03 313.62 164.25C309.75 168.12 290.41 187.47 255.59 222.29L217.24 211.7L193.4 205.12L273.54 124.98C285.58 116.96 295.26 112.95 302.57 112.95ZM140.94 257.32C140.94 257.15 140.94 256.3 140.94 254.75C149.21 254.75 153.81 254.75 154.73 254.75C157.28 263.22 161.44 271.06 166.82 277.74C166.46 277.74 164.63 277.74 161.35 277.74C147.74 271.63 140.94 264.83 140.94 257.32ZM48.81 451.11C48.81 394.24 95.07 347.97 151.94 347.97C155.97 347.97 159.95 348.21 163.87 348.67C161.56 358.65 143.06 438.53 140.75 448.52C139.96 451.93 140.77 455.52 142.95 458.26C145.13 461 148.44 462.6 151.94 462.6C162.19 462.6 244.18 462.6 254.43 462.6C248.7 514.08 204.93 554.24 151.94 554.24C95.07 554.24 48.81 507.98 48.81 451.11ZM186.26 353.85C222.84 366.8 250 399.82 254.43 439.62C248.56 439.62 219.22 439.62 166.4 439.62C178.31 388.16 184.93 359.57 186.26 353.85ZM198.53 300.88L253.6 332.68C264.45 379.98 270.48 406.26 271.69 411.52C259.17 373.75 229.25 343.84 191.47 331.34C192.41 327.28 194.76 317.13 198.53 300.88ZM269.43 315.28C261.99 310.98 202.48 276.62 195.04 272.32C185.55 266.84 178.14 256.04 175.71 244.12C174.25 236.96 174.68 230.19 176.9 224.4C179.13 225.02 190.28 228.1 210.36 233.64L253 245.41C278.32 270.73 292.38 284.8 295.2 287.61C305.86 298.28 312.94 311.75 315.68 326.59C317.08 335.26 328.25 404.66 329.64 413.34C329.59 413.34 329.54 413.33 329.49 413.33C327.24 413.33 315.97 413.33 295.68 413.33L295.68 413.33L274.88 322.66C273.09 318.8 271.27 316.34 269.43 315.28ZM299.17 436.31C317.36 436.31 327.47 436.31 329.49 436.31C344.47 436.31 357.25 445.92 361.99 459.3C357.81 459.3 336.86 459.3 299.17 459.3L299.17 436.31ZM353.79 418.74C353.5 416.93 352.04 407.87 349.42 391.56C402.28 343.68 431.65 317.07 437.53 311.75C438.82 317.82 440.29 323.84 441.98 329.82C442.08 330.17 442.87 332.98 442.97 333.33C403.42 348.53 373.4 383.09 364.59 425.35C361.26 422.77 357.64 420.55 353.79 418.74Z" id="e32rb3kKAa"></path><path d="M591.19 451.11C591.19 451.16 591.19 451.59 591.19 451.65C591.17 457.99 596.3 463.15 602.65 463.17C602.66 463.17 602.67 463.17 602.68 463.17C609.01 463.17 614.16 458.05 614.17 451.71C614.17 451.65 614.18 451.17 614.18 451.11C614.17 444.76 609.03 439.62 602.68 439.62C596.34 439.62 591.19 444.76 591.19 451.11Z" id="c41XMzZY8M"></path><path d="M297.4 554.25C294.37 554.25 291.41 555.47 289.27 557.61C287.13 559.75 285.9 562.71 285.9 565.74C285.9 568.76 287.13 571.73 289.27 573.86C291.41 576 294.37 577.23 297.4 577.23C300.42 577.23 303.38 576 305.52 573.86C307.67 571.73 308.89 568.76 308.89 565.74C308.89 562.7 307.67 559.75 305.52 557.61C303.38 555.47 300.43 554.25 297.4 554.25Z" id="c7f2dwFTjz"></path></defs><g><g><g><use xlink:href="#e32rb3kKAa" opacity="1" fill="#8fb9ab" fill-opacity="1"></use><g><use xlink:href="#e32rb3kKAa" opacity="1" fill-opacity="0" stroke="#000000" stroke-width="1" stroke-opacity="0"></use></g></g><g><use xlink:href="#c41XMzZY8M" opacity="1" fill="#8fb9ab" fill-opacity="1"></use><g><use xlink:href="#c41XMzZY8M" opacity="1" fill-opacity="0" stroke="#000000" stroke-width="1" stroke-opacity="0"></use></g></g><g><use xlink:href="#c7f2dwFTjz" opacity="1" fill="#8fb9ab" fill-opacity="1"></use><g><use xlink:href="#c7f2dwFTjz" opacity="1" fill-opacity="0" stroke="#000000" stroke-width="1" stroke-opacity="0"></use></g></g></g></g></svg>