<?xml version="1.0" encoding="UTF-8" standalone="no"?>
<!DOCTYPE svg PUBLIC "-//W3C//DTD SVG 1.1//EN" "http://www.w3.org/Graphics/SVG/1.1/DTD/svg11.dtd">
<svg version="1.1" xmlns="http://www.w3.org/2000/svg" xmlns:xlink="http://www.w3.org/1999/xlink" preserveAspectRatio="xMidYMid meet" viewBox="0 0 640 640" width="640" height="640"><defs><path d="M255.13 31.87C221.52 31.87 194.27 59.12 194.27 92.73C194.27 126.35 221.52 153.6 255.13 153.6C288.74 153.6 315.99 126.35 315.99 92.73C315.99 59.12 288.74 31.87 255.13 31.87Z" id="df5bIHq2k"></path><path d="M495.92 272.04C489.04 270.25 481.55 273.01 477.54 279.47C475.88 282.14 475.12 285.28 475.12 288.42C475.12 291.25 475.12 313.85 475.12 316.68C475.12 325.86 467.68 333.3 458.5 333.3C456.83 333.3 448.49 333.3 433.47 333.3C418.92 373.55 410.84 395.92 409.22 400.39C414.62 399.7 420.07 399.36 425.55 399.36C454.9 399.36 482.94 409.12 506.63 427.6C512.55 432.22 519.19 434.66 525.83 434.66C532.47 434.66 539.11 432.22 545.03 427.6C552.82 421.52 561.2 416.32 569.94 412.13C576.63 408.92 584.08 407.23 591.49 407.23C597.16 407.23 602.71 408.22 607.93 410.05C606.37 379.29 595.24 349.33 576.2 324.95C555.92 298.98 527.41 280.19 495.92 272.04Z" id="c8q22jhLW"></path><path d="M84.97 520.05C78.46 514.98 71.45 510.72 64.14 507.42C55.77 503.63 45.92 507.35 42.14 515.71C38.36 524.08 42.07 533.93 50.43 537.71C55.35 539.93 60.09 542.81 64.52 546.27C82.29 560.13 103.07 567.45 124.62 567.45C146.17 567.45 166.95 560.13 184.72 546.27C195.47 537.88 207.7 533.21 220.11 532.25C223.28 523.47 227.6 511.44 232.01 499.2C208.36 497.48 184.28 504.44 164.27 520.05C140.18 538.84 109.05 538.84 84.97 520.05Z" id="d1nZoa4pX5"></path><path d="M84.97 453.55C78.46 448.47 71.45 444.22 64.14 440.91C55.77 437.13 45.92 440.85 42.14 449.21C38.36 457.58 42.07 467.43 50.43 471.21C55.35 473.43 60.09 476.31 64.52 479.77C82.29 493.63 103.07 500.95 124.62 500.95C146.17 500.95 166.95 493.63 184.72 479.77C201.96 466.32 223.45 462.52 243.1 468.35C247.02 457.47 249.93 449.38 250.5 447.77C250.55 447.65 251.12 446.05 251.12 446.05C251.13 446.03 251.21 445.86 251.22 445.84C252.37 442.87 253.67 439.99 255.13 437.22C224.75 427.19 191.1 432.62 164.27 453.55C140.18 472.34 109.05 472.34 84.97 453.55Z" id="a4MN1eilAA"></path><path d="M584.31 441.84C577.73 445 571.39 448.94 565.48 453.55C541.4 472.34 510.27 472.34 486.18 453.55C461.15 434.02 430.17 427.98 401.45 435.4C406.83 445.08 410.31 455.89 411.48 467.28C429.97 463.1 449.69 467.25 465.73 479.77C483.5 493.63 504.28 500.95 525.83 500.95C547.38 500.95 568.16 493.63 585.93 479.77C589.96 476.63 594.25 473.95 598.69 471.83C606.97 467.86 610.46 457.93 606.49 449.65C602.52 441.37 592.6 437.88 584.31 441.84Z" id="b2IqmpU344"></path><path d="M584.31 508.35C577.73 511.5 571.39 515.44 565.48 520.05C541.4 538.84 510.27 538.84 486.18 520.05C463.08 502.03 434.92 495.51 408.15 500.44C407.76 501.69 407.34 502.93 406.89 504.17C402.86 515.26 399.37 525.03 395.33 536.33C395.3 536.42 395.06 537.1 395.03 537.19C394.63 538.31 394.22 539.46 393.8 540.63C416.6 527.77 444.41 529.64 465.73 546.27C483.5 560.13 504.28 567.45 525.83 567.45C547.38 567.45 568.16 560.13 585.93 546.27C589.96 543.13 594.25 540.45 598.69 538.33C606.97 534.36 610.46 524.43 606.49 516.15C602.52 507.87 592.6 504.38 584.31 508.35Z" id="a8k6927mVI"></path><path d="M173.66 316.68C173.66 313.85 173.66 291.22 173.66 288.39C173.66 285.23 172.89 282.09 171.21 279.41C167.19 273 159.73 270.26 152.87 272.03C121.38 280.19 92.87 298.98 72.58 324.94C53.71 349.11 42.61 378.77 40.9 409.24C46.09 407.43 51.62 406.45 57.29 406.45C64.42 406.45 71.33 407.95 77.84 410.89C87.56 415.29 96.83 420.91 105.42 427.6C111.33 432.22 117.97 434.66 124.61 434.66C131.25 434.66 137.89 432.22 143.81 427.6C167.51 409.12 195.54 399.36 224.89 399.36C243.18 399.36 260.98 403.16 277.55 410.51C285.58 404.21 294.74 399.45 304.58 396.47C306.86 390.15 325.13 339.62 327.41 333.3C267.76 333.3 251.44 333.3 190.28 333.3C181.1 333.3 173.66 325.86 173.66 316.68Z" id="d3ywHRJURr"></path><path d="M431.25 146.83C429.87 150.54 422.97 169.11 410.55 202.52L306.77 202.52C278 185.71 262.01 176.38 258.82 174.51C236.2 159.42 206.91 176.23 206.91 202.52C206.91 209.02 206.91 241.53 206.91 300.05L306.55 300.05L306.55 269.02L347.67 269.02L385.83 269.02L386 269.02C350.9 364.15 331.4 417 327.5 427.57C306.98 427.41 287.63 440.01 280.21 460.35C280.21 460.36 280.21 460.37 280.2 460.38C280.2 460.38 280.2 460.38 280.2 460.38C280.18 460.44 280.16 460.5 280.14 460.57C279.08 463.5 246.97 552.79 244.83 558.66C242.56 564.89 244.15 572.09 249.45 576.85C251.04 578.28 252.94 579.32 254.96 580.06C261.19 582.32 311.02 600.46 317.25 602.73C319.09 603.4 321.02 603.73 322.94 603.73C325.34 603.73 327.74 603.21 329.96 602.18C333.96 600.31 337.05 596.94 338.56 592.8C349.52 562.69 356.48 543.18 362.07 527.51C366.21 515.91 371.5 504.47 375.65 493.07C378.02 486.55 379 479.76 378.57 472.88C377.68 458.84 369.23 447.55 358.75 438.92C362.92 427.59 383.79 370.96 421.36 269.02L422.07 269.02C422.65 269.02 422.97 269.02 423.03 269.02C441.57 269.02 456.67 254.33 456.67 235.77C456.67 225.25 451.52 216.36 443.94 210.29C445.87 205.11 461.3 163.64 463.23 158.46C466.45 149.64 461.89 139.87 453.05 136.65C444.24 133.47 434.46 138 431.25 146.83Z" id="aKjoaZoi"></path></defs><g><g><g><use xlink:href="#df5bIHq2k" opacity="1" fill="#8fb9ab" fill-opacity="1"></use><g><use xlink:href="#df5bIHq2k" opacity="1" fill-opacity="0" stroke="#000000" stroke-width="1" stroke-opacity="0"></use></g></g><g><use xlink:href="#c8q22jhLW" opacity="1" fill="#8fb9ab" fill-opacity="1"></use><g><use xlink:href="#c8q22jhLW" opacity="1" fill-opacity="0" stroke="#000000" stroke-width="1" stroke-opacity="0"></use></g></g><g><use xlink:href="#d1nZoa4pX5" opacity="1" fill="#8fb9ab" fill-opacity="1"></use><g><use xlink:href="#d1nZoa4pX5" opacity="1" fill-opacity="0" stroke="#000000" stroke-width="1" stroke-opacity="0"></use></g></g><g><use xlink:href="#a4MN1eilAA" opacity="1" fill="#8fb9ab" fill-opacity="1"></use><g><use xlink:href="#a4MN1eilAA" opacity="1" fill-opacity="0" stroke="#000000" stroke-width="1" stroke-opacity="0"></use></g></g><g><use xlink:href="#b2IqmpU344" opacity="1" fill="#8fb9ab" fill-opacity="1"></use><g><use xlink:href="#b2IqmpU344" opacity="1" fill-opacity="0" stroke="#000000" stroke-width="1" stroke-opacity="0"></use></g></g><g><use xlink:href="#a8k6927mVI" opacity="1" fill="#8fb9ab" fill-opacity="1"></use><g><use xlink:href="#a8k6927mVI" opacity="1" fill-opacity="0" stroke="#000000" stroke-width="1" stroke-opacity="0"></use></g></g><g><use xlink:href="#d3ywHRJURr" opacity="1" fill="#8fb9ab" fill-opacity="1"></use><g><use xlink:href="#d3ywHRJURr" opacity="1" fill-opacity="0" stroke="#000000" stroke-width="1" stroke-opacity="0"></use></g></g><g><use xlink:href="#aKjoaZoi" opacity="1" fill="#8fb9ab" fill-opacity="1"></use><g><use xlink:href="#aKjoaZoi" opacity="1" fill-opacity="0" stroke="#000000" stroke-width="1" stroke-opacity="0"></use></g></g></g></g></svg>