<?xml version="1.0" encoding="UTF-8" standalone="no"?>
<!DOCTYPE svg PUBLIC "-//W3C//DTD SVG 1.1//EN" "http://www.w3.org/Graphics/SVG/1.1/DTD/svg11.dtd">
<svg version="1.1" xmlns="http://www.w3.org/2000/svg" xmlns:xlink="http://www.w3.org/1999/xlink" preserveAspectRatio="xMidYMid meet" viewBox="0 0 640 640" width="640" height="640"><defs><path d="M497.36 192.88C489.32 171.44 465.44 160.57 443.99 168.61C441.68 169.48 430.09 173.82 409.22 181.64L353.98 191.52C319.57 158.49 300.45 140.14 296.63 136.47C292.04 132.03 285.95 130.42 280.06 131.05C274.36 119.38 228.8 26.01 223.11 14.33C220.63 9.19 214.44 7.03 209.22 9.55C204.06 12.07 201.91 18.29 204.43 23.45C210.29 35.47 257.21 131.62 263.08 143.64C259.95 151.29 261.5 160.39 267.83 166.47C268.63 167.23 272.63 171.06 279.81 177.95L355.85 333.81L337.41 392.31C321.72 381.57 313 375.6 311.25 374.41C302.11 368.15 295.9 358.48 294.03 347.57C292.01 335.86 275.86 242.16 273.84 230.45C273.09 226.05 271.61 221.82 269.5 217.91C266.88 213.08 253.8 188.91 230.26 145.41C209.38 69.48 197.77 27.29 195.45 18.85C193.48 11.72 186.98 6.76 179.57 6.76C172.33 6.76 114.43 6.76 107.19 6.76C98.11 6.76 90.74 14.13 90.74 23.22C90.74 82.32 90.74 555.09 90.74 614.18C90.74 623.27 98.11 630.64 107.19 630.64C141.65 630.64 417.36 630.64 451.83 630.64C457.72 630.64 463.2 627.48 466.12 622.34C469.05 617.21 469.01 610.89 466 605.81C460.09 595.8 412.78 515.72 406.86 505.71C405.56 503.51 404.49 501.2 403.62 498.81C401.31 492.44 382.87 441.44 380.57 435.06C387.17 431.29 392.45 425.21 394.93 417.4C394.97 417.26 395.18 416.56 395.57 415.29C457.67 542.56 492.17 613.26 499.07 627.4C500.85 631.1 504.55 633.24 508.41 633.24C509.93 633.24 511.49 632.91 512.96 632.19C518.12 629.67 520.27 623.44 517.75 618.29C512.55 607.63 470.96 522.39 465.76 511.74C466.16 511.76 466.55 511.94 466.98 511.94C469.34 511.94 471.77 511.67 474.17 511.1C490.94 507.14 501.32 490.33 497.36 473.57C496.19 468.63 490.36 443.94 479.86 399.49C513.39 379.23 532.02 367.97 535.74 365.72C546.71 359.08 553.59 342.97 546.16 323.12C533.98 290.56 507.12 218.93 497.36 192.88ZM332.82 228.86C336.72 232.61 341.92 234.65 347.24 234.65C348.46 234.65 349.68 234.54 350.89 234.33C355.46 233.51 378.32 229.42 419.46 222.05L445.63 291.9C419.03 286.41 404.26 283.36 401.3 282.75C385.62 279.53 370.07 288.68 365.25 303.94C365.23 304.01 365.12 304.36 364.91 305L323.31 219.72C329.02 225.2 332.18 228.25 332.82 228.86ZM416.29 349.55L435.36 353.49C431.03 356.11 428.63 357.57 428.15 357.86C416.53 364.86 410.8 378.54 413.91 391.72C414.33 393.5 416.42 402.37 420.19 418.34L404.67 386.47L416.29 349.55Z" id="aNjR8i4vS"></path><path d="M466.11 114.52C466.11 84.5 441.77 60.16 411.75 60.16C381.73 60.16 357.36 84.5 357.36 114.52C357.37 144.56 381.73 168.9 411.75 168.9C441.77 168.9 466.11 144.56 466.11 114.52Z" id="c6M2zL76tb"></path></defs><g><g><g><use xlink:href="#aNjR8i4vS" opacity="1" fill="#8fb9ab" fill-opacity="1"></use><g><use xlink:href="#aNjR8i4vS" opacity="1" fill-opacity="0" stroke="#000000" stroke-width="1" stroke-opacity="0"></use></g></g><g><use xlink:href="#c6M2zL76tb" opacity="1" fill="#8fb9ab" fill-opacity="1"></use><g><use xlink:href="#c6M2zL76tb" opacity="1" fill-opacity="0" stroke="#000000" stroke-width="1" stroke-opacity="0"></use></g></g></g></g></svg>