<?xml version="1.0" encoding="UTF-8" standalone="no"?>
<!DOCTYPE svg PUBLIC "-//W3C//DTD SVG 1.1//EN" "http://www.w3.org/Graphics/SVG/1.1/DTD/svg11.dtd">
<svg version="1.1" xmlns="http://www.w3.org/2000/svg" xmlns:xlink="http://www.w3.org/1999/xlink" preserveAspectRatio="xMidYMid meet" viewBox="0 0 640 640" width="640" height="640"><defs><path d="M413.54 284.5C413.54 291.03 418.84 296.33 425.37 296.33C431.9 296.33 437.21 291.03 437.21 284.5C437.21 277.96 431.9 272.66 425.37 272.66C418.84 272.66 413.54 277.96 413.54 284.5Z" id="b2YeawCELd"></path><path d="M138.97 284.5C138.97 291.03 144.27 296.33 150.81 296.33C157.34 296.33 162.64 291.03 162.64 284.5C162.64 277.96 157.34 272.66 150.81 272.66C144.27 272.66 138.97 277.96 138.97 284.5Z" id="f2tHHSOTCU"></path><path d="M168.59 142.48C108.33 142.48 57.9 188.78 56.18 245.69C54.36 305.92 102.5 355.5 162.64 355.5C169.66 355.5 225.77 355.5 232.79 355.5C238.15 355.5 242.84 351.9 244.22 346.71C244.57 345.41 247.33 335.02 247.68 333.72C255.41 304.74 281.76 284.5 311.76 284.5C341.76 284.5 368.11 304.74 375.84 333.72C376.18 335.02 378.95 345.41 379.29 346.71C380.67 351.9 385.37 355.5 390.73 355.5C397.15 355.5 448.5 355.5 454.92 355.5C515.19 355.5 565.62 309.21 567.33 252.3C569.15 192.06 521.02 142.48 460.87 142.48C402.42 142.48 197.82 142.48 168.59 142.48ZM454.92 331.83C451.25 331.83 432.88 331.83 399.83 331.83C399.16 329.31 398.78 327.9 398.71 327.62C388.22 288.29 352.46 260.83 311.76 260.83C271.05 260.83 235.3 288.29 224.8 327.63C224.73 327.91 224.36 329.31 223.69 331.83C187.06 331.83 166.71 331.83 162.64 331.83C116.05 331.83 78.42 293.46 79.84 246.4C81.18 202.15 120.99 166.15 168.59 166.15C197.82 166.15 431.65 166.15 460.87 166.15C507.46 166.15 545.09 204.52 543.68 251.58C542.34 295.83 502.52 331.83 454.92 331.83Z" id="adV57dIL"></path><path d="M591.06 28.87C591.06 22.33 585.76 17.03 579.22 17.03C572.12 17.03 515.31 17.03 508.21 17.03C501.68 17.03 496.38 22.33 496.38 28.87C496.38 35.91 496.38 92.22 496.38 99.26C484.8 96.53 472.91 95.14 460.87 95.14C431.65 95.14 197.82 95.14 168.59 95.14C84.37 95.14 11.39 160.11 8.87 244.27C6.25 331.28 75.82 402.84 162.64 402.84C171.47 402.84 242.13 402.84 250.96 402.84C267.02 402.84 281.13 392.01 285.27 376.48C286.09 373.43 292.61 348.97 293.43 345.92C295.64 337.63 303.18 331.83 311.76 331.83C320.54 331.83 327.92 337.78 330.09 345.91C330.9 348.97 337.43 373.43 338.24 376.49C342.39 392.01 356.5 402.84 372.55 402.84C380.79 402.84 446.68 402.84 454.92 402.84C468.99 402.84 482.87 401.03 496.38 397.48C496.38 404.64 496.38 461.95 496.38 469.12C496.38 488.67 480.52 504.62 460.87 504.62C454.04 504.62 399.4 504.62 392.57 504.62C387.68 490.85 374.53 480.95 359.1 480.95C349.63 480.95 273.89 480.95 264.42 480.95C248.99 480.95 235.84 490.85 230.95 504.62C224.83 504.62 175.86 504.62 169.74 504.62C163.21 504.62 157.91 509.92 157.91 516.46C157.91 523.56 157.91 580.36 157.91 587.46C157.91 594 163.21 599.3 169.74 599.3C175.86 599.3 224.83 599.3 230.95 599.3C235.84 613.07 248.99 622.97 264.42 622.97C273.89 622.97 349.63 622.97 359.1 622.97C374.52 622.97 387.68 613.07 392.57 599.3C400.58 599.3 464.69 599.3 472.71 599.3C538 599.3 591.06 546.39 591.06 480.95C591.06 465.8 591.06 344.56 591.06 329.4C605.71 306.62 613.85 280.56 614.65 253.72C615.58 222.81 607.41 192.93 591.06 167.04C591.06 139.4 591.06 42.68 591.06 28.87ZM181.58 575.63L181.58 528.29L228.92 528.29L228.92 575.63L181.58 575.63ZM359.1 599.3C349.63 599.3 273.89 599.3 264.42 599.3C257.89 599.3 252.59 593.99 252.59 587.46C252.59 580.36 252.59 523.56 252.59 516.46C252.59 509.93 257.89 504.62 264.42 504.62C273.89 504.62 349.63 504.62 359.1 504.62C365.62 504.62 370.93 509.93 370.93 516.46C370.93 521.19 370.93 544.86 370.93 587.46C367.39 595.35 363.45 599.3 359.1 599.3ZM394.6 575.63L394.6 528.29L449.04 528.29L449.04 575.63L394.6 575.63ZM567.39 40.7C567.39 99.12 567.39 131.58 567.39 138.07C553.67 124.92 537.58 114.31 520.05 106.98C520.05 102.56 520.05 80.47 520.05 40.7L567.39 40.7ZM472.71 527.11C480.15 525.6 487.19 522.69 493.51 518.49C497.23 522.21 527.03 552.01 530.76 555.73C514.23 568.62 494.02 575.63 472.71 575.63C472.71 565.92 472.71 531.96 472.71 527.11ZM510.24 501.75C512.84 497.83 514.95 493.52 516.53 489.12C521.58 489.12 561.96 489.12 567.01 489.12C565.44 507.36 558.7 524.63 547.49 539C540.04 531.55 513.97 505.47 510.24 501.75ZM520.05 465.57C520.05 419.77 520.05 394.33 520.05 389.24C537.57 381.61 553.68 370.92 567.39 357.89C567.39 365.07 567.39 400.96 567.39 465.57L520.05 465.57ZM503.54 370.41C487.93 376.23 471.57 379.17 454.92 379.17C446.68 379.17 380.79 379.17 372.55 379.17C367.2 379.17 362.49 375.56 361.11 370.38C360.3 367.33 353.77 342.87 352.96 339.81C348.07 321.51 331.46 308.17 311.76 308.17C292.47 308.17 275.53 321.18 270.56 339.81C269.74 342.87 263.22 367.32 262.41 370.38C261.02 375.56 256.32 379.17 250.96 379.17C242.13 379.17 171.47 379.17 162.64 379.17C89.28 379.17 30.31 318.73 32.53 244.98C34.61 175.41 95.65 118.81 168.59 118.81C197.82 118.81 431.65 118.81 460.87 118.81C534.06 118.81 593.2 179.27 590.99 253.01C589.38 306.95 552.98 352.09 503.54 370.41Z" id="eGcGxXsq1"></path><path d="M288.09 527.19C281.55 527.19 276.25 532.49 276.25 539.03C276.25 545.56 281.55 550.86 288.09 550.86C292.82 550.86 330.69 550.86 335.43 550.86C341.96 550.86 347.26 545.56 347.26 539.03C347.26 532.49 341.96 527.19 335.43 527.19C325.96 527.19 292.82 527.19 288.09 527.19Z" id="a1AJ0DQmf"></path><path d="M214.55 205.12C211 208.67 182.59 237.07 179.04 240.62C174.42 245.25 174.42 252.74 179.04 257.36C183.67 261.98 191.16 261.98 195.78 257.36C199.33 253.81 227.73 225.41 231.28 221.86C235.9 217.24 235.9 209.74 231.28 205.12C226.66 200.5 219.17 200.5 214.55 205.12Z" id="a13iNu2fW2"></path><path d="M488.01 205.12C484.46 208.67 456.06 237.07 452.51 240.62C447.89 245.25 447.89 252.74 452.51 257.36C457.13 261.98 464.62 261.98 469.24 257.36C472.79 253.81 501.2 225.41 504.75 221.86C509.37 217.24 509.37 209.74 504.75 205.12C500.12 200.5 492.63 200.5 488.01 205.12Z" id="b4bAOxw0uM"></path></defs><g><g><g><use xlink:href="#b2YeawCELd" opacity="1" fill="#8fb9ab" fill-opacity="1"></use><g><use xlink:href="#b2YeawCELd" opacity="1" fill-opacity="0" stroke="#000000" stroke-width="1" stroke-opacity="0"></use></g></g><g><use xlink:href="#f2tHHSOTCU" opacity="1" fill="#8fb9ab" fill-opacity="1"></use><g><use xlink:href="#f2tHHSOTCU" opacity="1" fill-opacity="0" stroke="#000000" stroke-width="1" stroke-opacity="0"></use></g></g><g><use xlink:href="#adV57dIL" opacity="1" fill="#8fb9ab" fill-opacity="1"></use><g><use xlink:href="#adV57dIL" opacity="1" fill-opacity="0" stroke="#000000" stroke-width="1" stroke-opacity="0"></use></g></g><g><use xlink:href="#eGcGxXsq1" opacity="1" fill="#8fb9ab" fill-opacity="1"></use><g><use xlink:href="#eGcGxXsq1" opacity="1" fill-opacity="0" stroke="#000000" stroke-width="1" stroke-opacity="0"></use></g></g><g><use xlink:href="#a1AJ0DQmf" opacity="1" fill="#8fb9ab" fill-opacity="1"></use><g><use xlink:href="#a1AJ0DQmf" opacity="1" fill-opacity="0" stroke="#000000" stroke-width="1" stroke-opacity="0"></use></g></g><g><use xlink:href="#a13iNu2fW2" opacity="1" fill="#8fb9ab" fill-opacity="1"></use><g><use xlink:href="#a13iNu2fW2" opacity="1" fill-opacity="0" stroke="#000000" stroke-width="1" stroke-opacity="0"></use></g></g><g><use xlink:href="#b4bAOxw0uM" opacity="1" fill="#8fb9ab" fill-opacity="1"></use><g><use xlink:href="#b4bAOxw0uM" opacity="1" fill-opacity="0" stroke="#000000" stroke-width="1" stroke-opacity="0"></use></g></g></g></g></svg>